<?xml version="1.0" standalone="no"?>
<!DOCTYPE svg PUBLIC "-//W3C//DTD SVG 20010904//EN"
 "http://www.w3.org/TR/2001/REC-SVG-20010904/DTD/svg10.dtd">
<svg version="1.0" xmlns="http://www.w3.org/2000/svg"
 width="280.000000pt" height="280.000000pt" viewBox="0 0 280.000000 280.000000"
 preserveAspectRatio="xMidYMid meet">
<metadata>
Created by potrace 1.14, written by Peter Selinger 2001-2017
</metadata>
<g transform="translate(0.000000,280.000000) scale(0.100000,-0.100000)"
fill="#000000" stroke="none">
<path d="M1230 2780 c-131 -16 -317 -73 -445 -138 -254 -127 -504 -377 -622
-622 -101 -208 -144 -387 -145 -605 -1 -165 5 -217 38 -348 82 -324 249 -575
524 -790 110 -87 306 -181 459 -223 161 -44 405 -62 551 -40 125 19 376 95
415 126 6 4 21 11 35 15 13 4 36 15 50 25 14 9 61 41 105 70 303 203 521 541
584 907 14 82 18 146 16 263 -2 85 -6 169 -9 185 -4 17 -11 55 -17 85 -28 153
-122 366 -223 510 -76 106 -226 258 -332 332 -132 94 -357 196 -489 223 -16 3
-40 8 -52 10 -13 3 -35 7 -50 10 -49 10 -326 13 -393 5z"/>
</g>
</svg>
