<svg fill="currentColor" xmlns="http://www.w3.org/2000/svg" data-name="Layer 2" viewBox="0 0 55.47 55.47"><g data-name="Layer 1"><circle cx="27.74" cy="27.74" r="27.74"/><path d="M9.04 37.64c1.24-1.96 2.65-3.79 3.99-5.67 1.78-2.5 3.58-4.99 5.35-7.49.54-.76 1.21-1.36 2.05-1.77.35-.17.68-.37 1.03-.54.74-.35 1.34-.86 1.88-1.47 1.94-2.2 3.97-4.32 6.05-6.38.48-.48.79-1.11 1.34-1.52.11-.09.1-.35.14-.52 1.13-.11 2.25.65 2.74 1.84-.53.42-.87 1-1.17 1.58-1.52 2.97-3.04 5.95-4.69 8.86-.37.65-.5 1.35-.57 2.06-.14 1.51-.71 2.79-1.6 4.01-2.79 3.81-5.53 7.67-8.26 11.53-.65.92-1.49 1.42-2.96 1.04-2.52-.64-4.3-2.16-5.32-4.56v-1Zm37.39 1c-1.04 2.38-2.79 3.92-5.33 4.55-1.33.33-2.2.01-2.95-1.05-2.88-4.07-5.78-8.11-8.69-12.15-.84-1.16-1.16-2.42-1.01-3.83.04-.37.13-.7.31-1.02.87-1.6 1.74-3.21 2.6-4.81.04-.07.1-.13.16-.21.36.19.56.49.78.76.41.5.91.87 1.49 1.17 2.64 1.39 2.4 1.16 4.21 3.71 2.49 3.49 4.99 6.97 7.49 10.46.33.47.63.95.95 1.43v1ZM24.24 17.97c-.84-1.35-1.26-2.83-2.42-3.91.55-1.09 1.43-1.72 2.69-1.91.48 1.27 1.56 2 2.39 3.02-.89.93-1.74 1.82-2.66 2.79Z" data-name="2fKdGj" fill="#307978"/></g></svg>