<svg xmlns="http://www.w3.org/2000/svg" id="Layer_2" data-name="Layer 2" viewBox="0 0 55.47 55.47"><defs><style>.cls-1{fill:#307978}</style></defs><g id="Layer_2-2" data-name="Layer 2"><circle cx="27.74" cy="27.74" r="27.74"/><g id="w5pAGs"><path d="M44.84 19.4v16.67c-.09.34-.1.7-.16 1.04a9.492 9.492 0 0 1-1.28 3.26 9.478 9.478 0 0 1-8.09 4.43H20.19c-.86 0-1.71-.1-2.54-.33-1.13-.3-2.16-.8-3.11-1.48a9.366 9.366 0 0 1-2.7-3.04c-.54-.97-.9-2-1.07-3.1-.04-.26-.03-.53-.12-.78V19.4c.02-.04.04-.08.04-.12.04-.57.15-1.12.3-1.67.3-1.09.78-2.1 1.44-3.01.8-1.1 1.79-2 2.97-2.68 1-.57 2.07-.95 3.22-1.13.26-.04.53-.03.78-.12h16.7s.08.04.12.05c.57.04 1.12.14 1.67.29 1.09.3 2.1.78 3.02 1.44 1.11.8 2 1.78 2.68 2.97.57 1 .96 2.07 1.13 3.21.04.26.03.53.12.78Zm-17.1 22.38h7.38c.43 0 .87-.02 1.3-.09 1.91-.32 3.37-1.31 4.42-2.93.7-1.09.98-2.3.98-3.58V20.32c0-.58-.04-1.15-.18-1.72-.51-1.96-1.68-3.4-3.51-4.29-.94-.46-1.94-.62-2.98-.62H20.36c-.43 0-.87.02-1.3.1-1.87.32-3.31 1.29-4.35 2.86-.73 1.1-1.02 2.33-1.02 3.63v14.9c0 .5.03 1 .13 1.49.37 1.67 1.25 3 2.65 3.98.79.55 1.66.9 2.61 1.04.43.07.86.09 1.3.09h7.38Z" class="cls-1"/><path d="M18.92 27.69c.07-4.93 4.03-8.78 8.87-8.74 4.95.04 8.79 4.03 8.75 8.85a8.76 8.76 0 0 1-8.84 8.72c-4.93-.03-8.77-3.99-8.77-8.84Zm8.82 5.81c3.19 0 5.77-2.58 5.77-5.76 0-3.19-2.59-5.76-5.77-5.76-3.19 0-5.77 2.58-5.77 5.76 0 3.19 2.59 5.76 5.77 5.76ZM36.92 16.38c1.18 0 2.23.9 2.22 2.22-.01 1.37-1.1 2.2-2.21 2.2-1.15 0-2.23-.87-2.22-2.22 0-1.3 1.04-2.2 2.21-2.2Z" class="cls-1"/></g></g></svg>