<svg fill="currentColor" xmlns="http://www.w3.org/2000/svg" viewBox="0 0 55.47 54.98"><path d="M32.19 27.71c-.16-.21-.13-.35-.13-.47v-4.67c0-.46.05-.91.15-1.35.41-1.77 1.74-2.89 3.61-3 1.17-.06 2.34-.03 3.51-.05.23 0 .47.06.73-.07v-6.69c-.55-.23-1.16-.23-1.75-.3-1.61-.19-3.23-.34-4.86-.29-1.44.04-2.85.27-4.18.82-2.89 1.19-4.64 3.37-5.43 6.36-.28 1.05-.41 2.12-.41 3.21v6.48h-7.02v8.01h6.99c.06 2.19.02 4.32.03 6.45V55C11.89 53.52.06 42.94 0 27.77-.06 12.8 11.8.66 26.49.03c15.52-.67 28.16 11.28 28.94 26.1.83 15.85-11.12 27.23-23.33 28.86V35.77c.71-.11 1.42-.04 2.13-.05.69-.01 1.39 0 2.08 0h2.21c.41-2.67.82-5.3 1.23-8h-7.57Z"/></svg>