<?xml version="1.0" encoding="UTF-8"?>
<svg id="Layer_2" data-name="Layer 2" xmlns="http://www.w3.org/2000/svg" viewBox="0 0 105.25 18.45">
  <defs>
    <style>
      .cls-1 {
        fill: #ffb600;
      }
    </style>
  </defs>
  <g id="Layer_2-2" data-name="Layer 2">
    <g>
      <polygon class="cls-1" points="9.7 0 11.99 7.05 19.4 7.05 13.41 11.4 15.7 18.45 9.7 14.1 3.71 18.45 6 11.4 0 7.05 7.41 7.05 9.7 0"/>
      <polygon class="cls-1" points="31.16 0 33.45 7.05 40.86 7.05 34.87 11.4 37.16 18.45 31.16 14.1 25.17 18.45 27.46 11.4 21.46 7.05 28.87 7.05 31.16 0"/>
      <polygon class="cls-1" points="52.62 0 54.91 7.05 62.32 7.05 56.33 11.4 58.62 18.45 52.62 14.1 46.63 18.45 48.92 11.4 42.92 7.05 50.33 7.05 52.62 0"/>
      <polygon class="cls-1" points="74.09 0 76.38 7.05 83.79 7.05 77.79 11.4 80.08 18.45 74.09 14.1 68.09 18.45 70.38 11.4 64.39 7.05 71.8 7.05 74.09 0"/>
      <polygon class="cls-1" points="95.55 0 97.84 7.05 105.25 7.05 99.25 11.4 101.54 18.45 95.55 14.1 89.55 18.45 91.84 11.4 85.85 7.05 93.26 7.05 95.55 0"/>
    </g>
  </g>
</svg>