<svg fill="currentColor" xmlns="http://www.w3.org/2000/svg" viewBox="0 0 55.47 55.47"><g><circle cx="27.74" cy="27.74" r="27.74"/><path d="M20.98 35.66c-3.49-.16-5.83-2.49-6.58-4.9 1.01.14 2 .16 3-.1-.04-.12-.14-.1-.22-.13-2.46-.73-4.12-2.29-4.95-4.73-.19-.57-.28-1.16-.32-1.76 0-.13-.03-.26.03-.42.95.47 1.93.81 3.1.83-2.01-1.53-3.07-3.47-3.07-5.94 0-1.23.32-2.38.95-3.47 3.84 4.51 8.67 6.97 14.55 7.39-.51-3.54.65-6.22 3.79-7.96 3.11-1.39 5.86-.81 8.36 1.48 1.53-.3 2.99-.86 4.44-1.69-.25.85-.66 1.54-1.15 2.19a7.07 7.07 0 0 1-1.78 1.62c.52.1 1.71-.21 3.79-.95-.1.33-.78 1.19-1.51 1.95-.58.6-1.22 1.14-1.89 1.65v.62c.03 2.89-.55 5.66-1.69 8.31-1.11 2.58-2.65 4.87-4.7 6.81-2.56 2.43-5.57 4.02-9.01 4.8-1.9.43-3.83.59-5.78.49-3.45-.18-6.64-1.19-9.58-3.01-.04-.02-.07-.06-.16-.13 1.89.17 3.7.06 5.47-.45 1.78-.5 3.4-1.32 4.93-2.49Z" fill="#307978"/></g></svg>