<?xml version="1.0" encoding="UTF-8"?>
<svg id="Layer_2" data-name="Layer 2" xmlns="http://www.w3.org/2000/svg" viewBox="0 0 196.38 116.69">
  <defs>
    <style>
      .cls-1 {
        fill: #ffb600;
      }

      .cls-2 {
        fill: #c8c8c8;
      }

      .cls-3 {
        fill: #24272a;
      }

      .cls-4 {
        fill: #1d1d1b;
      }
    </style>
  </defs>
  <g id="Layer_2-2" data-name="Layer 2">
    <g>
      <g>
        <path class="cls-4" d="m111.95,56.79V1.09c0-.46.45-1.03.98-1.03h11.77c.53,0,.89.57.89,1.03v55.69h-13.64Z"/>
        <path class="cls-4" d="m151.44,59.6v11.59c0,.36-.36.8-.98.8h-37.54c-.53,0-.98-.45-.98-.8v-12.48h38.52c.62,0,.98.45.98.89"/>
        <path class="cls-4" d="m153.49,11.48V.87c0-.36.45-.8.98-.8h40.93c.62,0,.98.45.98.8v10.61c0,.45-.36.8-.98.8h-40.93c-.53,0-.98-.36-.98-.8"/>
        <path class="cls-4" d="m181.76,14.53v56.44c0,.45-.45,1.02-1.07,1.02h-11.5c-.63,0-.98-.56-.98-1.02V14.53h13.55Z"/>
        <path class="cls-4" d="m108.29,71.99h-12.3c-.27,0-.71-.18-.8-.54l-14.09-39.77-13.91,39.77c-.09.36-.54.54-.89.54h-12.21c-.8,0-1.16-.54-.89-1.07L80.21,1.19c.27-.71,1.51-.71,1.78,0l27.1,69.73c.27.54-.18,1.07-.8,1.07"/>
        <path class="cls-4" d="m44.8,52.01v-.55h-2.64c-.4,4.04-3.58,7.26-7.6,7.73H10.93s-7.66-.04-7.64,0c-.41,0-.83.56-.83.91v10.61c0,.44.34.8.75.8h31.4s.02,0,.03,0h2.35c.62,0,1.25-.04,1.87-.09h.06c8.71,0,15.81-8.86,16.16-19.96h-10.25c0,.18-.01.37-.02.55"/>
        <path class="cls-4" d="m39.4,29.79c-.98-.12-1.96-.19-2.93-.19h-15.63s-.09,0-.13,0h-.07c-4.77-.02-8.63-3.89-8.63-8.67,0-4.2,2.98-7.7,6.95-8.5h24.56c-.03-.07,7.17.04,7.14-.03.45,0,.7-.54.7-.98V.95c0-.35-.29-.93-.74-.93.05-.05-5.73.03-5.68-.02h-27.29c-1.91,0-3.4.17-5.72.79-2.06.54-3.9,1.68-5.51,3.32-.76.78-1.44,1.7-2.06,2.75C1.66,10.58,0,15.58,0,21.08c0,5.91,1.91,11.23,4.98,15.02.54.76,1.12,1.44,1.74,2.01,1.09,1,2.28,1.79,3.56,2.36,1.83.92,3.82,1.43,5.9,1.43.22,0,1.44.02,1.87.01-.02,0,0,0,.11,0h15.22v.02c.05,0,.11,0,.16,0,4.29,0,7.84,3.12,8.53,7.21h12.97c-.57-10.61-7.32-19.03-15.64-19.35"/>
      </g>
      <path class="cls-3" d="m78.12,91.61v16.75c-4.74,2.74-9.51,5.5-14.39,8.32-4.77-2.75-9.57-5.53-14.41-8.32v-16.76c4.78-2.76,9.55-5.52,14.39-8.32,4.81,2.78,9.61,5.55,14.41,8.32"/>
      <path class="cls-2" d="m113.72,91.61v16.75c-4.74,2.74-9.51,5.5-14.39,8.32-4.77-2.75-9.57-5.53-14.41-8.32v-16.76c4.78-2.76,9.55-5.52,14.39-8.32,4.81,2.78,9.61,5.55,14.41,8.32"/>
      <path class="cls-1" d="m149.31,91.61v16.75c-4.74,2.74-9.51,5.5-14.39,8.32-4.77-2.75-9.57-5.53-14.41-8.32v-16.76c4.78-2.76,9.55-5.52,14.39-8.32,4.81,2.78,9.61,5.55,14.41,8.32"/>
    </g>
  </g>
</svg>